<svg width="164" height="54" viewBox="0 0 164 54" fill="none" xmlns="http://www.w3.org/2000/svg">
<g filter="url(#filter0_d_536_83)">
<path d="M23.21 36H4.02441V9.28125H23.21V12.6953H11.3906V20.9521H20.5195V24.3477H11.3906V32.5859H23.21V36Z" fill="white"/>
<path d="M46.2178 19.876L43.5088 20.9521C43.0758 19.5915 42.3522 18.5462 41.3379 17.8164C40.3236 17.0866 39.1051 16.7217 37.6826 16.7217C36.9157 16.7217 36.2292 16.8454 35.623 17.0928C35.0293 17.3278 34.5036 17.6556 34.0459 18.0762C33.6006 18.4967 33.2171 18.9854 32.8955 19.542C32.5863 20.0986 32.3327 20.6924 32.1348 21.3232C31.9368 21.9541 31.7946 22.6097 31.708 23.29C31.6214 23.958 31.5781 24.6074 31.5781 25.2383C31.5781 25.9186 31.6152 26.6051 31.6895 27.2979C31.7637 27.9906 31.8874 28.6585 32.0605 29.3018C32.2461 29.9326 32.4873 30.5264 32.7842 31.083C33.0811 31.6273 33.4521 32.1035 33.8975 32.5117C34.3551 32.9199 34.8932 33.2415 35.5117 33.4766C36.1426 33.7116 36.8662 33.8291 37.6826 33.8291C38.3382 33.8291 38.9629 33.7301 39.5566 33.5322C40.1504 33.3343 40.6947 33.056 41.1895 32.6973C41.6842 32.3385 42.1234 31.9118 42.5068 31.417C42.8903 30.9222 43.1934 30.3717 43.416 29.7656L46.1436 30.7676C45.7354 31.7448 45.1911 32.5921 44.5107 33.3096C43.8428 34.0146 43.082 34.6022 42.2285 35.0723C41.375 35.5299 40.4596 35.8701 39.4824 36.0928C38.5052 36.3154 37.5156 36.4268 36.5137 36.4268C34.8932 36.4268 33.3903 36.1546 32.0049 35.6104C30.6195 35.0537 29.4196 34.2806 28.4053 33.291C27.4033 32.2891 26.6178 31.1077 26.0488 29.7471C25.4798 28.374 25.1953 26.8711 25.1953 25.2383C25.1953 23.5931 25.4736 22.084 26.0303 20.7109C26.5993 19.3379 27.3848 18.1566 28.3867 17.167C29.3887 16.1774 30.5824 15.4105 31.9678 14.8662C33.3532 14.3219 34.8685 14.0498 36.5137 14.0498C37.5527 14.0498 38.5671 14.1673 39.5566 14.4023C40.5462 14.625 41.4616 14.9775 42.3027 15.46C43.1562 15.93 43.917 16.5299 44.585 17.2598C45.2653 17.9896 45.8096 18.8617 46.2178 19.876Z" fill="white"/>
<path fill-rule="evenodd" clip-rule="evenodd" d="M72.5654 25.2383C72.5654 26.3516 72.417 27.3968 72.1201 28.374C71.8232 29.3512 71.4089 30.2542 70.877 31.083C70.3574 31.9118 69.7266 32.6602 68.9844 33.3281C68.2422 33.9837 67.4258 34.5404 66.5352 34.998C65.6569 35.4557 64.7106 35.8083 63.6963 36.0557C62.6943 36.3031 61.6615 36.4268 60.5977 36.4268C59.5339 36.4268 58.501 36.3031 57.499 36.0557C56.4971 35.8083 55.5508 35.4557 54.6602 34.998C53.7819 34.5404 52.9717 33.9837 52.2295 33.3281C51.4873 32.6602 50.8503 31.9118 50.3184 31.083C49.7988 30.2542 49.3906 29.3512 49.0938 28.374C48.7969 27.3844 48.6484 26.3392 48.6484 25.2383C48.6484 24.1374 48.7969 23.0983 49.0938 22.1211C49.3906 21.1315 49.7988 20.2223 50.3184 19.3936C50.8503 18.5648 51.4873 17.8226 52.2295 17.167C52.9717 16.499 53.7819 15.9362 54.6602 15.4785C55.5508 15.0208 56.4971 14.6683 57.499 14.4209C58.501 14.1735 59.5339 14.0498 60.5977 14.0498C61.6615 14.0498 62.6943 14.1735 63.6963 14.4209C64.7106 14.6683 65.6569 15.0208 66.5352 15.4785C67.4258 15.9362 68.2422 16.499 68.9844 17.167C69.7266 17.8226 70.3574 18.5648 70.877 19.3936C71.4089 20.2223 71.8232 21.1315 72.1201 22.1211C72.417 23.0983 72.5654 24.1374 72.5654 25.2383ZM66.0713 23.3643C66.1455 24.0199 66.1826 24.6445 66.1826 25.2383C66.1826 25.832 66.1455 26.4567 66.0713 27.1123C66.0094 27.7679 65.8919 28.4173 65.7188 29.0605C65.5579 29.7038 65.3415 30.3161 65.0693 30.8975C64.7972 31.4788 64.4508 31.9922 64.0303 32.4375C63.6221 32.8828 63.1335 33.2415 62.5645 33.5137C61.9954 33.7734 61.3398 33.9033 60.5977 33.9033C59.8802 33.9033 59.2432 33.7673 58.6865 33.4951C58.1299 33.223 57.6413 32.8643 57.2207 32.4189C56.8125 31.9613 56.4661 31.4417 56.1816 30.8604C55.9095 30.2666 55.6868 29.6481 55.5137 29.0049C55.3405 28.3617 55.2168 27.7184 55.1426 27.0752C55.0684 26.4196 55.0312 25.8073 55.0312 25.2383C55.0312 24.6693 55.0684 24.0632 55.1426 23.4199C55.2168 22.7643 55.3405 22.1211 55.5137 21.4902C55.6868 20.847 55.9095 20.2285 56.1816 19.6348C56.4661 19.041 56.8125 18.5215 57.2207 18.0762C57.6413 17.6185 58.1299 17.2536 58.6865 16.9814C59.2432 16.7093 59.8802 16.5732 60.5977 16.5732C61.3522 16.5732 62.014 16.7093 62.583 16.9814C63.152 17.2412 63.6406 17.5938 64.0488 18.0391C64.457 18.472 64.7972 18.9854 65.0693 19.5791C65.3538 20.1605 65.5765 20.7728 65.7373 21.416C65.8981 22.0469 66.0094 22.6963 66.0713 23.3643Z" fill="white"/>
<path fill-rule="evenodd" clip-rule="evenodd" d="M82.8447 10.7285C83.0303 10.3079 83.123 9.86263 83.123 9.39258C83.123 8.92253 83.0303 8.4834 82.8447 8.0752C82.6715 7.65462 82.4303 7.28971 82.1211 6.98047C81.8118 6.67122 81.4469 6.43001 81.0264 6.25684C80.6058 6.07129 80.1605 5.97852 79.6904 5.97852C79.2204 5.97852 78.7751 6.07129 78.3545 6.25684C77.9463 6.43001 77.5876 6.67122 77.2783 6.98047C76.9691 7.28971 76.7217 7.65462 76.5361 8.0752C76.363 8.4834 76.2764 8.92253 76.2764 9.39258C76.2764 9.86263 76.363 10.3079 76.5361 10.7285C76.7217 11.1491 76.9691 11.514 77.2783 11.8232C77.5876 12.1325 77.9463 12.3799 78.3545 12.5654C78.7751 12.7386 79.2204 12.8252 79.6904 12.8252C80.1605 12.8252 80.6058 12.7386 81.0264 12.5654C81.4469 12.3799 81.8118 12.1325 82.1211 11.8232C82.4303 11.514 82.6715 11.1491 82.8447 10.7285Z" fill="white"/>
<path d="M82.8447 36H76.5547V14.5879H82.8447V36Z" fill="white"/>
<path d="M107.894 19.876L105.185 20.9521C104.752 19.5915 104.028 18.5462 103.014 17.8164C101.999 17.0866 100.781 16.7217 99.3584 16.7217C98.5915 16.7217 97.9049 16.8454 97.2988 17.0928C96.7051 17.3278 96.1794 17.6556 95.7217 18.0762C95.2764 18.4967 94.8929 18.9854 94.5713 19.542C94.262 20.0986 94.0085 20.6924 93.8105 21.3232C93.6126 21.9541 93.4704 22.6097 93.3838 23.29C93.2972 23.958 93.2539 24.6074 93.2539 25.2383C93.2539 25.9186 93.291 26.6051 93.3652 27.2979C93.4395 27.9906 93.5632 28.6585 93.7363 29.3018C93.9219 29.9326 94.1631 30.5264 94.46 31.083C94.7568 31.6273 95.1279 32.1035 95.5732 32.5117C96.0309 32.9199 96.569 33.2415 97.1875 33.4766C97.8184 33.7116 98.542 33.8291 99.3584 33.8291C100.014 33.8291 100.639 33.7301 101.232 33.5322C101.826 33.3343 102.37 33.056 102.865 32.6973C103.36 32.3385 103.799 31.9118 104.183 31.417C104.566 30.9222 104.869 30.3717 105.092 29.7656L107.819 30.7676C107.411 31.7448 106.867 32.5921 106.187 33.3096C105.519 34.0146 104.758 34.6022 103.904 35.0723C103.051 35.5299 102.135 35.8701 101.158 36.0928C100.181 36.3154 99.1914 36.4268 98.1895 36.4268C96.569 36.4268 95.0661 36.1546 93.6807 35.6104C92.2952 35.0537 91.0954 34.2806 90.0811 33.291C89.0791 32.2891 88.2936 31.1077 87.7246 29.7471C87.1556 28.374 86.8711 26.8711 86.8711 25.2383C86.8711 23.5931 87.1494 22.084 87.7061 20.7109C88.2751 19.3379 89.0605 18.1566 90.0625 17.167C91.0645 16.1774 92.2581 15.4105 93.6436 14.8662C95.029 14.3219 96.5443 14.0498 98.1895 14.0498C99.2285 14.0498 100.243 14.1673 101.232 14.4023C102.222 14.625 103.137 14.9775 103.979 15.46C104.832 15.93 105.593 16.5299 106.261 17.2598C106.941 17.9896 107.485 18.8617 107.894 19.876Z" fill="white"/>
<path d="M117.913 36H111.623V14.5879H117.913V36Z" fill="white"/>
<path d="M131.254 36H124.964V17.0557H121.067V14.5693H124.964V6.68359H131.254V14.5693H137.748V17.0557H131.254V36Z" fill="white"/>
<path d="M159.847 14.5693L152.054 33.4209C151.163 35.5732 150.167 37.7008 149.066 39.8037C147.978 41.9189 146.797 43.9476 145.522 45.8896L143.073 44.4053C143.382 43.8486 143.747 43.2054 144.168 42.4756C144.589 41.7458 145.003 40.9912 145.411 40.2119C145.819 39.4326 146.197 38.6595 146.543 37.8926C146.889 37.138 147.155 36.4453 147.341 35.8145L137.971 14.5693H144.242L150.606 29.0605L155.505 14.5693H159.847Z" fill="white"/>
</g>
<path d="M123.395 4.35731C123.367 4.06026 123.132 3.82512 122.835 3.79672C122.668 3.78084 118.732 3.43358 116.44 5.72563C115.943 6.22264 115.57 6.79695 115.291 7.39332C114.832 5.51123 114.014 3.94973 112.892 2.82735C111.508 1.44399 109.458 0.523609 106.962 0.165771C105.105 -0.100523 103.66 0.0325048 103.599 0.0383684C103.302 0.0667688 103.067 0.30191 103.038 0.598958C103.033 0.659588 102.899 2.10546 103.166 3.96237C103.524 6.45794 104.444 8.50832 105.827 9.89164C107.211 11.275 109.261 12.1954 111.757 12.5532C112.676 12.685 113.494 12.719 114.093 12.719C114.637 12.7189 115 12.6911 115.096 12.6828C115.178 12.6898 115.428 12.7083 115.793 12.7083C117.068 12.7083 119.736 12.4824 121.466 10.7517C123.758 8.45977 123.411 4.5238 123.395 4.35731Z" fill="#BFFB32"/>
<path d="M119.587 7.79839C119.344 7.55527 118.95 7.55527 118.707 7.79839L115.29 11.2154L109.993 5.91922C109.75 5.6761 109.356 5.6761 109.113 5.91922C108.87 6.16234 108.87 6.55659 109.113 6.79979L114.814 12.5011C114.936 12.6227 115.095 12.6835 115.254 12.6835C115.266 12.6835 115.278 12.6826 115.29 12.6818C115.301 12.6825 115.313 12.6835 115.325 12.6835C115.484 12.6835 115.643 12.6227 115.765 12.5011L119.587 8.67897C119.83 8.43577 119.83 8.04151 119.587 7.79839Z" fill="#8CDC52"/>
<path d="M122.834 3.79676C122.668 3.78088 118.732 3.43362 116.44 5.72567C115.943 6.22268 115.57 6.79699 115.291 7.39336C115.285 7.36855 115.279 7.34402 115.273 7.31929V12.6949C115.397 12.7018 115.574 12.7084 115.793 12.7084C117.068 12.7084 119.736 12.4824 121.466 10.7518C123.758 8.45973 123.411 4.52376 123.395 4.35731C123.367 4.0603 123.132 3.82516 122.834 3.79676Z" fill="#8CDC52"/>
<path d="M118.707 7.7984L115.29 11.2154L115.273 11.1984V12.6826C115.278 12.6823 115.284 12.6822 115.29 12.6818C115.301 12.6825 115.313 12.6835 115.325 12.6835C115.484 12.6835 115.643 12.6227 115.765 12.5011L119.587 8.67894C119.83 8.43582 119.83 8.04156 119.587 7.79836C119.344 7.55524 118.95 7.55524 118.707 7.7984Z" fill="#5DC378"/>
<defs>
<filter id="filter0_d_536_83" x="0.0244141" y="5.97852" width="163.822" height="47.9111" filterUnits="userSpaceOnUse" color-interpolation-filters="sRGB">
<feFlood flood-opacity="0" result="BackgroundImageFix"/>
<feColorMatrix in="SourceAlpha" type="matrix" values="0 0 0 0 0 0 0 0 0 0 0 0 0 0 0 0 0 0 127 0" result="hardAlpha"/>
<feOffset dy="4"/>
<feGaussianBlur stdDeviation="2"/>
<feComposite in2="hardAlpha" operator="out"/>
<feColorMatrix type="matrix" values="0 0 0 0 0 0 0 0 0 0 0 0 0 0 0 0 0 0 0.35 0"/>
<feBlend mode="normal" in2="BackgroundImageFix" result="effect1_dropShadow_536_83"/>
<feBlend mode="normal" in="SourceGraphic" in2="effect1_dropShadow_536_83" result="shape"/>
</filter>
</defs>
</svg>
